<?xml version='1.0' encoding='iso-8859-1'?>
<!-- Uploaded to: SVG Repo, www.svgrepo.com, Generator: SVG Repo Mixer Tools -->
<svg fill="#000000" height="800px" width="800px" version="1.1" xmlns="http://www.w3.org/2000/svg" viewBox="0 0 463 463" xmlns:xlink="http://www.w3.org/1999/xlink" enable-background="new 0 0 463 463">
  <g>
    <path d="m311.052,210.232c20.303-27.239 31.948-63.226 31.948-98.732 0-61.481-50.019-111.5-111.5-111.5-61.481,0-111.5,50.019-111.5,111.5 0,35.506 11.645,71.493 31.948,98.732 19.702,26.434 45.053,41.983 72.052,44.42v9.348h-0.5c-4.638,0-8.795,2.058-11.638,5.296l-29.431-14.715c-4.84-2.421-10.478-2.165-15.081,0.679-4.603,2.845-7.351,7.773-7.351,13.185v38.111c0,5.412 2.748,10.341 7.352,13.186 2.505,1.548 5.316,2.329 8.139,2.329 2.364,0 4.736-0.548 6.941-1.651l29.43-14.715c2.843,3.239 7,5.296 11.638,5.296h0.525c-0.011,0.166-0.025,0.331-0.025,0.5 0,33.729-11.046,50.298-22.74,67.84-12.417,18.627-25.259,37.888-25.259,76.159 0,4.143 3.358,7.5 7.5,7.5s7.5-3.357 7.5-7.5c0-33.729 11.046-50.298 22.74-67.84 12.418-18.628 25.26-37.89 25.26-76.16 0-0.169-0.014-0.334-0.025-0.5h0.525c4.638,0 8.795-2.058 11.638-5.296l29.43,14.715c2.206,1.104 4.578,1.651 6.942,1.651 2.822,0 5.634-0.781 8.139-2.329 4.603-2.845 7.352-7.774 7.352-13.186v-38.111c0-5.411-2.748-10.34-7.351-13.185-4.604-2.847-10.242-3.099-15.082-0.679l-29.43,14.715c-2.843-3.238-7-5.296-11.638-5.296h-0.5v-9.347c27-2.436 52.35-17.986 72.052-44.42zm-135.329,96.771c-0.092,0.046-0.249,0.126-0.486-0.021-0.237-0.147-0.237-0.322-0.237-0.426v-38.111c0-0.104 0-0.278 0.237-0.425 0.238-0.146 0.394-0.069 0.487-0.022l32.276,16.137v6.73l-32.277,16.138zm111.553-39.006c0.094-0.047 0.25-0.124 0.488,0.022 0.237,0.146 0.237,0.32 0.237,0.425v38.111c0,0.104 0,0.279-0.237,0.426-0.237,0.146-0.394,0.067-0.487,0.021l-32.277-16.137v-6.73l32.276-16.138zm-47.276,11.503v16c0,0.275-0.224,0.5-0.5,0.5h-16c-0.276,0-0.5-0.225-0.5-0.5v-16c0-0.275 0.224-0.5 0.5-0.5h16c0.276,0 0.5,0.225 0.5,0.5zm-76.026-78.232c-18.413-24.705-28.974-57.423-28.974-89.768 0-53.21 43.29-96.5 96.5-96.5 53.21,0 96.5,43.29 96.5,96.5 0,32.345-10.561,65.063-28.974,89.768-18.617,24.977-42.598,38.732-67.526,38.732s-48.909-13.755-67.526-38.732z"/>
    <path d="m191.5,127c4.142,0 7.5-3.357 7.5-7.5v-8c0-4.143-3.358-7.5-7.5-7.5s-7.5,3.357-7.5,7.5v8c0,4.143 3.358,7.5 7.5,7.5z"/>
    <path d="m271.5,127c4.142,0 7.5-3.357 7.5-7.5v-8c0-4.143-3.358-7.5-7.5-7.5s-7.5,3.357-7.5,7.5v8c0,4.143 3.358,7.5 7.5,7.5z"/>
    <path d="m231.5,199c18.668,0 35.661-9.149 45.913-24.297 0.681,0.197 1.384,0.297 2.087,0.297 1.919,0 3.839-0.732 5.303-2.196 2.929-2.93 2.929-7.678 0-10.607l-8-8c-2.929-2.928-7.678-2.928-10.606,0-2.874,2.875-2.921,7.496-0.155,10.436-7.338,12.023-20.263,19.367-34.542,19.367-14.282,0-27.204-7.343-34.542-19.368 2.766-2.94 2.719-7.561-0.155-10.436-2.929-2.928-7.678-2.928-10.606,0l-8,8c-2.929,2.93-2.929,7.678 0,10.607 1.464,1.464 3.384,2.196 5.303,2.196 0.703,0 1.405-0.1 2.086-0.297 10.251,15.15 27.241,24.298 45.914,24.298z"/>
  </g>
</svg>