<?xml version="1.0" encoding="iso-8859-1"?>
<!-- Uploaded to: SVG Repo, www.svgrepo.com, Generator: SVG Repo Mixer Tools -->
<!DOCTYPE svg PUBLIC "-//W3C//DTD SVG 1.1//EN" "http://www.w3.org/Graphics/SVG/1.1/DTD/svg11.dtd">
<svg fill="#000000" height="800px" width="800px" version="1.1" id="Capa_1" xmlns="http://www.w3.org/2000/svg" xmlns:xlink="http://www.w3.org/1999/xlink" 
	 viewBox="0 0 477.152 477.152" xml:space="preserve">
<path d="M354.758,133.258c-13.12-8.589-28.587-15.207-46.288-19.834c0.092-0.15,0.178-0.288,0.274-0.444
	c2.319-3.76,1.152-8.689-2.608-11.009c-3.76-2.321-8.69-1.151-11.009,2.608c-1.473,2.388-2.492,4.032-3.232,5.214
	c-16.202-2.916-33.992-4.388-53.319-4.388c-20.419,0-39.124,1.643-56.051,4.897c-8.95-13.062-19.502-30.526-27.069-43.391
	c16.313,5.048,39.392,12.52,54.52,18.818c2.092,0.871,4.456,0.814,6.503-0.157s3.587-2.764,4.236-4.935
	c4.637-15.497,12.339-36.132,18.062-50.906c5.578,14.401,13.036,34.372,17.703,49.723c0.652,2.144,2.174,3.917,4.194,4.886
	c2.02,0.97,4.355,1.047,6.435,0.213c14.845-5.946,35.718-12.707,50.973-17.436c-0.91,1.492-1.864,3.056-2.858,4.685
	c-2.303,3.771-1.111,8.695,2.66,10.997c3.77,2.303,8.694,1.112,10.996-2.66c8.233-13.488,13.744-22.565,13.744-22.565
	c1.711-2.818,1.518-6.397-0.487-9.015c-2.004-2.617-5.408-3.739-8.576-2.821c-1.677,0.485-37.725,10.949-64.37,20.869
	c-8.8-26.787-22.375-60.085-23.007-61.632C244.954,1.966,242.027,0,238.777,0s-6.177,1.966-7.406,4.975
	c-0.649,1.592-14.597,35.8-23.376,62.755c-26.818-10.226-65.548-21.469-67.353-21.991c-3.125-0.904-6.48,0.172-8.497,2.719
	c-2.018,2.548-2.292,6.063-0.696,8.894c0.848,1.504,18.788,33.27,34.402,56.834c-16.523,4.581-31.041,10.945-43.456,19.073
	c-33.13,21.687-49.928,54.905-49.928,98.729c0,45.694,18.615,106.692,47.424,155.4c34.236,57.885,76.387,89.764,118.686,89.764
	s84.449-31.879,118.686-89.764c28.809-48.708,47.424-109.706,47.424-155.4C404.685,188.163,387.887,154.945,354.758,133.258z
	 M238.576,461.152c-79.951,0-150.109-142.83-150.109-229.164c0-38.085,14.363-66.799,42.69-85.343
	c25.583-16.747,61.724-25.239,107.419-25.239s81.836,8.492,107.419,25.239c28.327,18.544,42.69,47.257,42.69,85.343
	C388.685,318.322,318.527,461.152,238.576,461.152z M185.873,323.214c-13.255,0-21.176,17.466-21.176,34.352
	s7.921,34.352,21.176,34.352s21.176-17.466,21.176-34.352S199.128,323.214,185.873,323.214z M185.873,375.519
	c-1.936-2.016-5.176-8.86-5.176-17.954s3.24-15.938,5.176-17.954c1.936,2.016,5.176,8.86,5.176,17.954
	S187.808,373.503,185.873,375.519z M238.576,260.505c-13.255,0-21.176,17.466-21.176,34.352c0,16.885,7.921,34.351,21.176,34.351
	s21.176-17.466,21.176-34.351C259.752,277.971,251.831,260.505,238.576,260.505z M238.576,312.81
	c-1.936-2.016-5.176-8.859-5.176-17.953c0-9.093,3.24-15.938,5.176-17.954c1.936,2.016,5.176,8.86,5.176,17.954
	C243.752,303.95,240.511,310.794,238.576,312.81z M343.982,270.511c-13.255,0-21.176,17.466-21.176,34.351
	c0,16.886,7.921,34.352,21.176,34.352s21.176-17.466,21.176-34.352C365.158,287.977,357.237,270.511,343.982,270.511z
	 M343.982,322.816c-1.936-2.015-5.176-8.859-5.176-17.954c0-9.094,3.24-15.938,5.176-17.953c1.936,2.016,5.176,8.859,5.176,17.953
	S345.918,320.8,343.982,322.816z M133.17,270.511c-13.255,0-21.176,17.466-21.176,34.351c0,16.886,7.921,34.352,21.176,34.352
	s21.176-17.466,21.176-34.352C154.345,287.977,146.425,270.511,133.17,270.511z M133.17,322.816
	c-1.936-2.016-5.176-8.86-5.176-17.954s3.24-15.938,5.176-17.953c1.936,2.015,5.176,8.859,5.176,17.953
	C138.345,313.957,135.105,320.801,133.17,322.816z M238.576,145.092c-13.255,0-21.176,17.466-21.176,34.352
	s7.921,34.352,21.176,34.352s21.176-17.466,21.176-34.352S251.831,145.092,238.576,145.092z M238.576,197.397
	c-1.936-2.016-5.176-8.86-5.176-17.954s3.24-15.938,5.176-17.954c1.936,2.016,5.176,8.86,5.176,17.954
	S240.511,195.381,238.576,197.397z M343.982,233.808c13.255,0,21.176-17.466,21.176-34.352s-7.921-34.352-21.176-34.352
	s-21.176,17.466-21.176,34.352S330.727,233.808,343.982,233.808z M343.982,181.503c1.936,2.016,5.176,8.86,5.176,17.954
	s-3.24,15.938-5.176,17.954c-1.936-2.015-5.176-8.859-5.176-17.954S342.047,183.518,343.982,181.503z M133.17,165.105
	c-13.255,0-21.176,17.466-21.176,34.352s7.921,34.352,21.176,34.352s21.176-17.466,21.176-34.352S146.425,165.105,133.17,165.105z
	 M133.17,217.41c-1.936-2.016-5.176-8.86-5.176-17.954s3.24-15.938,5.176-17.954c1.936,2.015,5.176,8.859,5.176,17.954
	S135.105,215.395,133.17,217.41z M238.576,375.917c-13.255,0-21.176,17.466-21.176,34.352s7.921,34.352,21.176,34.352
	s21.176-17.466,21.176-34.352S251.831,375.917,238.576,375.917z M238.576,428.222c-1.936-2.016-5.176-8.86-5.176-17.954
	s3.24-15.938,5.176-17.954c1.936,2.016,5.176,8.86,5.176,17.954S240.511,426.206,238.576,428.222z M291.279,323.214
	c-13.255,0-21.176,17.466-21.176,34.352s7.921,34.352,21.176,34.352s21.176-17.466,21.176-34.352S304.534,323.214,291.279,323.214z
	 M291.279,375.519c-1.936-2.016-5.176-8.86-5.176-17.954s3.24-15.938,5.176-17.954c1.936,2.016,5.176,8.86,5.176,17.954
	S293.215,373.503,291.279,375.519z M185.873,207.802c-13.255,0-21.176,17.466-21.176,34.352s7.921,34.352,21.176,34.352
	s21.176-17.466,21.176-34.352S199.128,207.802,185.873,207.802z M185.873,260.107c-1.936-2.016-5.176-8.86-5.176-17.954
	s3.24-15.938,5.176-17.954c1.936,2.016,5.176,8.86,5.176,17.954S187.808,258.091,185.873,260.107z M291.279,207.802
	c-13.255,0-21.176,17.466-21.176,34.352s7.921,34.352,21.176,34.352s21.176-17.466,21.176-34.352S304.534,207.802,291.279,207.802z
	 M291.279,260.107c-1.936-2.016-5.176-8.86-5.176-17.954s3.24-15.938,5.176-17.954c1.936,2.016,5.176,8.86,5.176,17.954
	S293.215,258.091,291.279,260.107z"/>
</svg>