<?xml version="1.0" encoding="iso-8859-1"?>
<!-- Uploaded to: SVG Repo, www.svgrepo.com, Generator: SVG Repo Mixer Tools -->
<!DOCTYPE svg PUBLIC "-//W3C//DTD SVG 1.1//EN" "http://www.w3.org/Graphics/SVG/1.1/DTD/svg11.dtd">
<svg fill="#1a1a1a" version="1.1" id="Capa_1" xmlns="http://www.w3.org/2000/svg" xmlns:xlink="http://www.w3.org/1999/xlink" 
	 width="800px" height="800px" viewBox="0 0 197.933 197.932"
	 xml:space="preserve">
<g>
	<path d="M191.406,57.284c-7.697-7.575-16.837-9.876-21.275-5.392L159.475,62.74c-3.501,3.559-5.48,8.211-5.578,13.119
		c-0.066,3.766,1.018,7.331,3.057,10.3c-8.841,2.999-12.896,11.901-17.494,22.033c-0.925,2.07-1.777,4.269-2.643,6.442
		c-0.804-2.91-2.271-5.492-4.408-7.66c3.057-1.395,5.2-4.184,5.968-8.281c1.687-9.042-5.505-13.052-14.334-16.998
		c-3.459-1.546-6.674-3.796-11.192-9.8c-0.56-0.737-1.474-1.136-2.362-0.969c-0.907,0.131-1.669,0.749-1.973,1.608
		c-0.317,0.862-7.667,21.178-1.176,32.9c2.241,4.056,5.827,6.625,10.62,7.653c0.39,0.086,0.804,0.129,1.248,0.129
		c1.771,0,4.512-0.713,6.375-2.717c0.506-0.554,0.816-1.205,1.12-1.863c5.578,3.946,7.223,10.474,4.665,18.688
		c-3.69,7.289-8.61,13.232-17.671,15.479c-3.246,0.798-6.431,0.694-9.48-0.085c5.09-4.275,8.622-10.486,9.608-17.598
		c0.188-1.364-0.768-2.631-2.132-2.813c-1.363-0.152-2.618,0.755-2.812,2.131c-0.907,6.625-4.306,12.361-9.341,15.759
		c-0.168,0.128-0.387,0.195-0.572,0.311c-0.183-0.115-0.387-0.177-0.561-0.299c-5.033-3.397-8.442-9.146-9.353-15.776
		c-0.195-1.37-1.428-2.277-2.819-2.125c-1.374,0.194-2.314,1.449-2.141,2.813c0.999,7.136,4.533,13.341,9.621,17.598
		c-3.018,0.779-6.235,0.889-9.463,0.085c-9.073-2.253-13.993-8.196-17.692-15.485c-2.536-8.22-0.898-14.735,4.676-18.682
		c0.313,0.652,0.618,1.304,1.13,1.863c1.863,1.985,4.588,2.717,6.366,2.717c0.435,0,0.868-0.049,1.248-0.129
		c4.808-1.01,8.373-3.58,10.61-7.647c6.491-11.728-0.853-32.044-1.172-32.906c-0.311-0.859-1.072-1.464-1.97-1.608
		c-0.91-0.149-1.802,0.231-2.35,0.953c-4.54,6.025-7.746,8.281-11.192,9.816c-8.842,3.946-16.012,7.931-14.334,16.992
		c0.746,4.104,2.898,6.905,5.952,8.287c-2.125,2.174-3.589,4.75-4.394,7.66c-0.868-2.191-1.705-4.372-2.658-6.442
		C53.91,98.06,49.839,89.158,40.992,86.159c2.037-2.987,3.13-6.54,3.06-10.3c-0.094-4.89-2.058-9.539-5.581-13.119L27.803,51.892
		c-4.421-4.509-13.567-2.183-21.257,5.392C0.124,63.62-1.882,71.277,1.915,75.116c0.648,0.676,1.888,1.479,3.998,1.504
		c0.03,0,0.055,0,0.079,0c3.86,0,9.502-2.706,13.177-6.311c1.964-1.939,3.733-4.177,4.826-6.159c2.22-4.022,1.34-6.242,0.18-7.408
		c-0.922-0.947-2.356-1.458-3.998-1.428c-1.279,0.019-2.643,0.329-3.982,0.904c3.629-1.927,6.732-2.171,8.038-0.868l10.668,10.863
		c2.606,2.649,4.071,6.104,4.141,9.694c0.061,3.556-1.267,6.859-3.729,9.268c-0.113,0.125-0.25,0.167-0.369,0.286
		c-0.268,0.131-0.499,0.316-0.679,0.542c-5.176,4.073-12.909,3.517-17.908-1.559l-1.607-1.639
		c5.142-2.688,14.608-8.811,16.471-18.395c0.255-1.352-0.63-2.67-1.97-2.938c-1.376-0.256-2.667,0.643-2.922,1.97
		C24.329,73.77,9.739,79.655,9.59,79.707c-0.779,0.304-1.355,0.977-1.528,1.802c-0.161,0.816,0.082,1.669,0.661,2.256l4.064,4.153
		c3.772,3.827,8.744,5.788,13.643,5.788c3.711,0,7.346-1.182,10.421-3.438c6.527,1.011,10.132,5.66,14.036,13.551
		c-4.765-2.637-10.172-3.068-15.89-0.955c-1.291,0.475-1.946,1.924-1.471,3.215c0.481,1.284,1.921,1.942,3.212,1.461
		c7.874-2.904,14.882,0.396,19.741,9.299c0.061,0.109,0.173,0.158,0.256,0.255c0.131,0.329,0.268,0.646,0.387,0.962
		c1.421,3.6,2.922,7.332,4.707,10.924c0.088,0.256,0.125,0.512,0.207,0.768c0.125,0.329,0.377,0.536,0.579,0.779
		c4.128,7.709,9.983,14.48,20.396,17.062c2.021,0.499,4.034,0.742,6.05,0.742c3.434,0,6.777-0.748,9.87-2.186
		c3.094,1.425,6.431,2.186,9.858,2.186c1.991,0,4.025-0.243,6.047-0.742c10.437-2.594,16.271-9.365,20.398-17.086
		c0.207-0.232,0.444-0.433,0.566-0.756c0.085-0.256,0.128-0.486,0.201-0.742c1.802-3.6,3.307-7.344,4.725-10.961
		c0.128-0.348,0.256-0.651,0.384-0.956c0.085-0.104,0.177-0.14,0.237-0.249c4.878-8.915,11.88-12.209,19.747-9.299
		c1.298,0.493,2.734-0.188,3.216-1.461c0.486-1.291-0.177-2.734-1.468-3.215c-5.712-2.107-11.137-1.669-15.898,0.974
		c3.909-7.892,7.514-12.559,14.029-13.569c2.983,2.207,6.582,3.443,10.412,3.443c0.22,0,0.427,0,0.646-0.019
		c4.89-0.158,9.512-2.21,13.024-5.775l4.067-4.153c0.591-0.606,0.835-1.434,0.664-2.256c-0.177-0.825-0.755-1.498-1.534-1.802
		c-0.141-0.07-14.724-5.937-16.745-16.264c-0.256-1.346-1.511-2.226-2.923-1.97c-1.352,0.268-2.217,1.586-1.961,2.938
		c1.863,9.579,11.302,15.719,16.472,18.395l-1.614,1.639c-2.594,2.643-6.016,4.171-9.621,4.29c-2.983,0.149-5.979-0.911-8.354-2.774
		c-0.152-0.17-0.348-0.319-0.536-0.426c-0.134-0.128-0.323-0.204-0.438-0.354c-2.473-2.427-3.781-5.711-3.715-9.268
		c0.062-3.59,1.511-7.045,4.116-9.694l10.675-10.857c1.285-1.321,4.391-1.072,8.02,0.861c-1.352-0.581-2.704-0.886-3.982-0.904
		c-1.699-0.036-3.051,0.469-3.977,1.416c-0.548,0.56-1.193,1.547-1.181,3.084c0.042,4.223,5.182,9.487,6.211,10.495
		c3.653,3.604,9.304,6.311,13.164,6.311c0.024,0,0.049,0,0.073,0c2.113-0.018,3.35-0.828,4.031-1.504
		C199.827,71.264,197.842,63.601,191.406,57.284z M127.914,103.01c-0.256,0-0.414-0.036-0.651-0.055
		c-7.922-2.515-8.281-8.349-8.293-8.628c-0.037-1.364-1.048-2.314-2.527-2.439c-1.376,0.034-2.473,1.166-2.466,2.536
		c0.012,0.359,0.256,7.733,8.434,11.923c-0.104,0.268-0.226,0.506-0.427,0.719c-0.676,0.73-1.93,1.145-2.734,1.145l-0.213-0.024
		c-3.373-0.706-5.754-2.411-7.288-5.163c-3.782-6.875-1.535-18.274,0.146-24.451c4.02,4.509,7.234,6.366,10.133,7.669
		c10.766,4.808,12.227,7.417,11.472,11.539C132.841,101.348,131.068,103.01,127.914,103.01z M64.547,97.78
		c-0.767-4.092,0.704-6.726,11.472-11.527c2.901-1.303,6.11-3.178,10.145-7.694c1.878,6.896,3.724,18.015,0.137,24.464
		c-1.531,2.758-3.915,4.475-7.289,5.176c0,0-0.073,0.012-0.21,0.012c-0.819,0-2.052-0.39-2.731-1.133
		c-0.195-0.207-0.344-0.463-0.426-0.73c8.175-4.184,8.418-11.557,8.43-11.91c0.013-1.376-1.071-2.473-2.444-2.509
		c-1.62,0.079-2.5,1.053-2.555,2.411c-0.012,0.25-0.362,6.107-8.263,8.622c-0.231,0.036-0.393,0.073-0.655,0.073
		C66.968,103.01,65.202,101.348,64.547,97.78z M8.381,71.225c-1.379,0.45-2.439,0.587-2.832,0.387
		c-1.185-1.209-0.268-5.547,3.708-9.889c-1.939,2.457-2.91,4.983-2.761,7.233C6.551,70.074,7.352,70.975,8.381,71.225z
		 M20.365,60.319c-0.387,1.218-1.903,3.766-4.616,6.442c-1.428,1.422-3.078,2.5-4.625,3.304c0.244-0.411,0.386-0.91,0.353-1.428
		c-0.055-0.877,0.551-2.618,2.451-4.655C16.586,61.068,19.211,60.353,20.365,60.319z M182.297,66.761
		c-2.734-2.676-4.244-5.224-4.628-6.442c1.169,0.034,3.787,0.755,6.479,3.663c1.888,2.049,2.479,3.791,2.43,4.655
		c-0.03,0.499,0.098,0.98,0.323,1.397C185.316,69.218,183.667,68.107,182.297,66.761z M192.587,71.557
		c-0.444,0.21-1.516,0.106-2.88-0.345c1.005-0.268,1.778-1.16,1.857-2.237c0.134-2.226-0.834-4.771-2.771-7.234
		C192.758,66.088,193.695,70.403,192.587,71.557z"/>
</g>
</svg>