<?xml version="1.0" encoding="iso-8859-1"?>
<!-- Uploaded to: SVG Repo, www.svgrepo.com, Generator: SVG Repo Mixer Tools -->
<!DOCTYPE svg PUBLIC "-//W3C//DTD SVG 1.1//EN" "http://www.w3.org/Graphics/SVG/1.1/DTD/svg11.dtd">
<svg fill="#1a1a1a" version="1.1" id="Capa_1" xmlns="http://www.w3.org/2000/svg" xmlns:xlink="http://www.w3.org/1999/xlink" 
	 width="800px" height="800px" viewBox="0 0 218.073 218.073"
	 xml:space="preserve">
<g>
	<g>
		<path d="M217.871,121.567c-0.974-4.36-5.547-7.289-9.938-6.303c-2.174,0.487-4.024,1.778-5.206,3.654
			c-0.036,0.066-0.036,0.133-0.073,0.194c-11.276-5.042-20.715,0.365-34.854,9.646c-2.881,1.887-5.791,4.024-8.61,6.095
			c-0.871,0.651-1.741,1.267-2.618,1.918c3.976-6.978,4.055-14.553-0.158-21.86c0.755-0.006,1.521-0.121,2.259-0.358
			c1.199-0.384,2.24-1.078,3.1-1.985c1.175-1.272,1.851-2.923,1.942-4.601c0.231,0.019,0.627,0.037,0.682,0.031
			c1.492,0,2.935-0.429,4.171-1.291c1.041-0.709,1.852-1.65,2.424-2.768c0.743-1.458,0.956-3.105,0.657-4.688
			c1.443-0.691,2.637-1.867,3.38-3.325c0.561-1.108,0.828-2.351,0.779-3.59c-0.067-1.735-0.749-3.373-1.888-4.64
			c1.297-1.084,2.21-2.606,2.545-4.308c0.231-1.242,0.146-2.469-0.243-3.693c-0.523-1.559-1.534-2.874-2.855-3.772
			c0.529-1.507,0.548-3.179,0.03-4.737c-0.396-1.19-1.09-2.277-1.985-3.093c-1.272-1.172-2.898-1.867-4.609-1.952
			c0.146-1.689-0.28-3.404-1.254-4.813c-0.688-1.035-1.656-1.885-2.771-2.457c-1.455-0.725-3.093-0.94-4.688-0.648
			c-0.7-1.44-1.863-2.631-3.337-3.373c-1.028-0.512-2.131-0.78-3.556-0.78c-0.013,0-0.024,0-0.043,0
			c-1.723,0.064-3.367,0.743-4.64,1.875c-1.084-1.288-2.606-2.207-4.312-2.536c-1.218-0.219-2.496-0.131-3.665,0.256
			c-1.565,0.512-2.887,1.516-3.788,2.844c-1.51-0.524-3.185-0.542-4.749-0.037c-1.206,0.396-2.247,1.078-3.105,1.995
			c-1.169,1.263-1.845,2.911-1.942,4.594c-1.693-0.174-3.429,0.28-4.859,1.261c-1.035,0.709-1.851,1.659-2.424,2.761
			c-0.73,1.459-0.949,3.105-0.651,4.695c-1.443,0.7-2.637,1.866-3.373,3.318c-0.561,1.124-0.834,2.362-0.785,3.602
			c0.066,1.729,0.748,3.374,1.887,4.64c-1.297,1.087-2.21,2.606-2.542,4.311c-0.229,1.239-0.143,2.466,0.247,3.678
			c0.523,1.559,1.528,2.88,2.855,3.772c-0.529,1.52-0.548,3.185-0.03,4.743c0.39,1.185,1.084,2.259,1.985,3.1
			c1.272,1.172,2.898,1.866,4.615,1.945c-0.152,1.69,0.268,3.429,1.242,4.838c0.706,1.041,1.675,1.888,2.776,2.436
			c1.456,0.73,3.105,0.963,4.688,0.646c0.694,1.449,1.863,2.655,3.331,3.392c1.011,0.493,2.144,0.779,3.544,0.779
			c0.013,0,0.03,0,0.043,0c1.735-0.079,3.386-0.755,4.652-1.894c1.083,1.304,2.605,2.217,4.316,2.546
			c0.445,0.085,0.896,0.127,1.346,0.127c0.798,0,1.577-0.127,2.332-0.383c1.56-0.523,2.887-1.522,3.788-2.85
			c0.006,0,0.012,0,0.019,0.012c-0.476,0.475-0.677,1.182-0.317,1.79c5.377,9.183,3.069,18.584-6.363,26.64
			c-8.805,5.256-18.298,8.446-29.617,4.665c-2.21-0.737-4.177-1.827-6.025-3.051c2.737-2.521,4.96-5.584,6.488-9.097
			c3.446-7.923,3.185-17.379-0.719-25.94c-0.354-0.776-1.291-1.126-2.064-0.771c-0.785,0.369-1.126,1.282-0.773,2.062
			c3.538,7.758,3.794,16.288,0.694,23.407c-1.431,3.3-3.571,6.144-6.22,8.457c-2.649-2.313-4.783-5.145-6.217-8.445
			c-3.099-7.131-2.85-15.661,0.685-23.419c0.356-0.779,0.012-1.693-0.773-2.062c-0.779-0.356-1.702-0.006-2.061,0.771
			c-3.897,8.562-4.159,18.024-0.712,25.952c1.528,3.501,3.754,6.564,6.485,9.085c-1.845,1.224-3.809,2.313-6.022,3.051
			c-11.326,3.781-20.81,0.591-29.605-4.652c-9.441-8.062-11.755-17.476-6.373-26.652c0.359-0.608,0.155-1.315-0.319-1.79
			c0.006-0.012,0.012-0.012,0.018-0.012c0.91,1.327,2.22,2.326,3.788,2.85c0.752,0.243,1.538,0.383,2.329,0.383
			c0.457,0,0.904-0.049,1.361-0.127c1.702-0.329,3.23-1.242,4.308-2.546c1.285,1.146,2.987,1.827,4.926,1.906
			c1.142,0,2.289-0.274,3.297-0.786c1.474-0.742,2.64-1.948,3.337-3.385c1.571,0.305,3.243,0.072,4.683-0.646
			c1.124-0.561,2.077-1.401,2.783-2.437c0.978-1.427,1.407-3.153,1.251-4.843c1.708-0.091,3.343-0.78,4.604-1.946
			c0.91-0.846,1.607-1.921,1.994-3.093c0.518-1.565,0.499-3.236-0.03-4.756c1.327-0.904,2.338-2.207,2.855-3.772
			c0.387-1.19,0.466-2.438,0.237-3.672c-0.325-1.698-1.242-3.239-2.539-4.311c1.142-1.258,1.821-2.905,1.875-4.619
			c0.064-1.229-0.204-2.475-0.779-3.617c-0.728-1.458-1.924-2.619-3.379-3.325c0.308-1.583,0.088-3.23-0.648-4.701
			c-0.566-1.123-1.382-2.046-2.424-2.755c-1.428-0.968-3.142-1.428-4.853-1.261c-0.091-1.689-0.764-3.321-1.945-4.6
			c-0.846-0.911-1.888-1.598-3.103-1.988c-1.546-0.505-3.23-0.487-4.74,0.037c-0.904-1.327-2.22-2.332-3.772-2.844
			c-1.184-0.387-2.445-0.481-3.69-0.25c-1.702,0.323-3.236,1.242-4.311,2.545c-1.288-1.154-2.993-1.827-4.917-1.909
			c-1.166,0-2.277,0.268-3.312,0.792c-1.464,0.742-2.637,1.939-3.343,3.373c-1.571-0.292-3.228-0.076-4.689,0.661
			c-1.12,0.566-2.083,1.41-2.761,2.433c-0.986,1.428-1.422,3.154-1.26,4.832c-1.714,0.101-3.34,0.786-4.601,1.946
			c-0.91,0.828-1.595,1.909-2.003,3.105c-0.518,1.559-0.496,3.224,0.04,4.737c-1.327,0.911-2.332,2.213-2.862,3.785
			c-0.387,1.193-0.469,2.438-0.237,3.681c0.329,1.696,1.239,3.236,2.536,4.302c-1.133,1.267-1.821,2.905-1.888,4.646
			c-0.037,1.227,0.237,2.469,0.786,3.577c0.743,1.458,1.939,2.64,3.379,3.325c-0.298,1.583-0.083,3.236,0.661,4.688
			c0.56,1.142,1.379,2.058,2.426,2.774c1.233,0.855,2.673,1.291,4.165,1.291l0,0c0.231,0,0.454-0.013,0.685-0.031
			c0.094,1.69,0.767,3.333,1.945,4.6c0.862,0.914,1.903,1.596,3.105,1.991c0.737,0.237,1.495,0.354,2.256,0.359
			c-4.22,7.295-4.141,14.87-0.155,21.86c-0.88-0.652-1.745-1.267-2.625-1.918c-2.819-2.07-5.724-4.202-8.61-6.107
			c-14.142-9.25-23.583-14.676-34.851-9.633c-0.037-0.067-0.037-0.135-0.073-0.195c-1.19-1.875-3.039-3.179-5.207-3.666
			c-4.384-0.956-8.966,1.949-9.94,6.314c-0.487,2.168-0.101,4.391,1.099,6.271c1.178,1.876,3.029,3.18,5.2,3.666
			c0.603,0.128,1.208,0.195,1.827,0.195c3.916,0,7.246-2.686,8.111-6.504c0.237-1.065,0.25-2.137,0.082-3.172
			c9.335-4.256,17.378-0.152,29.672,7.807c-8.217-1.432-15.5,1.217-20.861,7.86c-0.932-0.718-2.016-1.267-3.236-1.546
			c-4.473-0.993-8.948,1.881-9.94,6.314c-0.487,2.167-0.101,4.39,1.099,6.271c1.184,1.875,3.029,3.166,5.206,3.653
			c0.597,0.134,1.208,0.207,1.821,0.207c3.915,0,7.252-2.686,8.104-6.509c0.487-2.156,0.064-4.293-0.99-6.065
			c6.659-8.616,16.596-9.895,28.025-3.58c0.113,0.067,0.231,0,0.351,0.042c0.423,0.317,0.828,0.572,1.26,0.901
			c1.994,1.449,4.016,2.923,6.041,4.336c-7.344-0.651-13.829,2.106-18.724,8.171c-0.941-0.718-2-1.29-3.212-1.559
			c-4.363-0.949-8.96,1.949-9.938,6.309c-0.992,4.481,1.833,8.939,6.309,9.938c0.606,0.134,1.218,0.195,1.827,0.195
			c3.861,0,7.271-2.729,8.108-6.504c0.466-2.082,0.079-4.226-1.011-6.053c6.665-8.634,16.611-9.925,28.034-3.592
			c0.095,0.061,0.18,0,0.268,0.036c4.883,2.277,10.02,3.8,15.637,3.8c3.492,0,7.146-0.572,11.025-1.863
			c2.831-0.938,5.325-2.387,7.633-4.043c2.308,1.668,4.807,3.105,7.639,4.043c3.872,1.291,7.532,1.863,11.021,1.863
			c5.607,0,10.747-1.522,15.624-3.8c0.092-0.036,0.189,0.024,0.28-0.036c11.417-6.333,21.367-5.03,28.035,3.592
			c-1.097,1.827-1.474,3.971-1.011,6.053c0.834,3.764,4.25,6.504,8.104,6.504c0.614,0,1.224-0.073,1.826-0.195
			c4.481-0.998,7.308-5.456,6.309-9.938c-0.968-4.359-5.565-7.264-9.938-6.309c-1.193,0.269-2.259,0.841-3.209,1.559
			c-4.896-6.064-11.381-8.816-18.724-8.184c2.027-1.418,4.037-2.874,6.034-4.323c0.426-0.329,0.834-0.584,1.26-0.901
			c0.122-0.042,0.238,0.025,0.348-0.042c11.429-6.309,21.379-5.023,28.028,3.58c-1.054,1.748-1.474,3.909-0.992,6.065
			c0.864,3.823,4.195,6.509,8.11,6.509c0.615,0,1.218-0.079,1.82-0.207c2.174-0.487,4.025-1.778,5.206-3.653
			c1.182-1.882,1.577-4.104,1.097-6.271c-0.993-4.439-5.48-7.313-9.938-6.314c-1.218,0.279-2.308,0.828-3.239,1.546
			c-5.353-6.631-12.636-9.273-20.861-7.86c12.294-7.959,20.344-12.045,29.672-7.807c-0.164,1.035-0.152,2.106,0.085,3.172
			c0.859,3.818,4.196,6.504,8.111,6.504c0.615,0,1.218-0.079,1.826-0.195c2.174-0.486,4.02-1.79,5.2-3.666
			C217.968,125.958,218.352,123.723,217.871,121.567z M152.498,110.144l-0.682,1.76c-0.457,1.182-1.425,2.095-2.637,2.497
			c-0.688,0.231-1.468,0.268-2.119,0.146c-1.479-0.279-2.722-1.352-3.239-2.746l-1.193-3.254l-1.645,3.053
			c-0.712,1.328-2.088,2.187-3.763,2.241c-0.651,0-1.31-0.158-1.906-0.45c-1.145-0.578-1.954-1.632-2.247-2.862l-0.42-1.823
			l-1.717,0.739c-1.163,0.499-2.49,0.463-3.647-0.112c-0.634-0.323-1.182-0.798-1.589-1.407c-0.847-1.23-0.969-2.85-0.335-4.223
			l1.461-3.154l-3.324,0.996c-1.449,0.426-3.021,0.052-4.135-0.959c-0.53-0.481-0.907-1.084-1.139-1.778
			c-0.402-1.208-0.25-2.518,0.433-3.596l1.011-1.604l-1.76-0.685c-1.182-0.441-2.102-1.428-2.503-2.631
			c-0.231-0.673-0.274-1.422-0.134-2.119c0.28-1.498,1.303-2.712,2.733-3.236l3.258-1.172l-3.051-1.666
			c-1.333-0.707-2.191-2.094-2.24-3.581c-0.03-0.728,0.128-1.428,0.456-2.082c0.566-1.148,1.608-1.952,2.856-2.244l1.82-0.405
			l-0.743-1.714c-0.511-1.175-0.475-2.502,0.098-3.629c0.329-0.648,0.798-1.193,1.407-1.61c1.229-0.841,2.855-0.972,4.231-0.341
			l3.142,1.446l-0.992-3.319c-0.438-1.452-0.085-2.999,0.944-4.11c0.486-0.535,1.09-0.913,1.79-1.163
			c1.212-0.396,2.539-0.244,3.61,0.429l1.596,0.999l0.682-1.753c0.463-1.179,1.425-2.107,2.637-2.487
			c0.683-0.226,1.455-0.269,2.125-0.137c1.474,0.28,2.716,1.328,3.222,2.731l1.169,3.249l1.656-3.023
			c0.73-1.331,2.106-2.189,3.763-2.247c0.676,0,1.315,0.152,1.918,0.457c1.151,0.572,1.961,1.625,2.247,2.862l0.414,1.833
			l1.724-0.749c1.175-0.518,2.496-0.481,3.635,0.094c0.652,0.338,1.2,0.822,1.602,1.422c0.853,1.227,0.98,2.844,0.348,4.208
			l-1.462,3.13l3.318-0.959c1.443-0.441,3.021-0.064,4.135,0.953c0.518,0.469,0.907,1.105,1.145,1.778
			c0.396,1.208,0.238,2.527-0.438,3.611l-0.998,1.596l1.754,0.685c1.181,0.444,2.101,1.428,2.502,2.634
			c0.231,0.673,0.274,1.422,0.141,2.119c-0.293,1.477-1.34,2.725-2.74,3.236l-3.252,1.178l3.045,1.659
			c1.321,0.709,2.186,2.095,2.229,3.578c0.024,0.718-0.134,1.434-0.45,2.076c-0.573,1.154-1.62,1.958-2.868,2.253l-1.833,0.405
			l0.761,1.72c0.518,1.166,0.481,2.476-0.091,3.623c-0.335,0.648-0.804,1.19-1.407,1.607c-0.712,0.487-1.546,0.743-2.411,0.743
			c-0.633,0-1.242-0.131-1.82-0.399l-3.16-1.464l1.011,3.334c0.433,1.428,0.066,3.011-0.95,4.11
			c-0.499,0.535-1.096,0.919-1.79,1.162c-1.212,0.391-2.539,0.232-3.599-0.426L152.498,110.144z M58.612,110.437
			c-1.017-1.1-1.385-2.688-0.95-4.117l1.011-3.333l-3.161,1.47c-0.582,0.268-1.184,0.393-1.821,0.393
			c-0.867,0-1.689-0.256-2.402-0.743c-0.603-0.405-1.078-0.94-1.413-1.607c-0.576-1.154-0.606-2.469-0.095-3.623l0.761-1.714
			l-1.833-0.411c-1.249-0.295-2.296-1.124-2.871-2.253c-0.317-0.643-0.478-1.358-0.454-2.077c0.055-1.516,0.904-2.856,2.238-3.583
			l3.044-1.653L47.414,86c-1.41-0.511-2.457-1.732-2.74-3.224c-0.131-0.713-0.085-1.428,0.134-2.113
			c0.411-1.218,1.327-2.195,2.512-2.646l1.75-0.685l-0.996-1.595c-0.682-1.087-0.843-2.402-0.438-3.605
			c0.231-0.685,0.63-1.315,1.154-1.791c1.105-1.017,2.682-1.415,4.128-0.953l3.331,0.971l-1.479-3.142
			c-0.636-1.358-0.505-2.969,0.356-4.214c0.387-0.588,0.941-1.072,1.596-1.404c1.135-0.576,2.463-0.612,3.629-0.1l1.714,0.749
			l0.426-1.833c0.287-1.23,1.108-2.29,2.256-2.862c0.6-0.304,1.06-0.475,2.076-0.438c1.483,0.052,2.862,0.914,3.593,2.229
			l1.656,3.017l1.172-3.249c0.505-1.41,1.741-2.457,3.212-2.731c0.691-0.131,1.434-0.088,2.14,0.143
			c1.209,0.387,2.168,1.309,2.63,2.494l0.686,1.753l1.595-0.999c1.068-0.673,2.396-0.843,3.604-0.436
			c0.701,0.229,1.309,0.621,1.796,1.145c1.035,1.124,1.392,2.67,0.947,4.128l-0.989,3.318l3.142-1.455
			c1.376-0.64,2.986-0.496,4.226,0.344c0.606,0.411,1.081,0.947,1.404,1.611c0.575,1.139,0.612,2.466,0.1,3.635l-0.755,1.708
			l1.827,0.411c1.248,0.292,2.295,1.108,2.861,2.237c0.326,0.648,0.487,1.379,0.451,2.095c-0.058,1.486-0.911,2.868-2.232,3.581
			l-3.051,1.66l3.261,1.178c1.416,0.509,2.463,1.739,2.731,3.222c0.131,0.712,0.095,1.428-0.131,2.122
			c-0.405,1.208-1.321,2.186-2.506,2.636l-1.76,0.685l1.011,1.604c0.679,1.078,0.844,2.387,0.43,3.602
			c-0.223,0.694-0.609,1.291-1.157,1.778c-1.087,1.011-2.664,1.397-4.116,0.959l-3.325-0.996l1.458,3.142
			c0.648,1.379,0.512,2.986-0.341,4.235c-0.393,0.597-0.947,1.078-1.596,1.395c-1.142,0.587-2.475,0.612-3.641,0.119l-1.723-0.74
			l-0.411,1.83c-0.28,1.23-1.108,2.266-2.244,2.85c-0.6,0.305-1.041,0.414-2.07,0.438c-1.504-0.061-2.88-0.913-3.592-2.217
			l-1.644-3.065l-1.193,3.261c-0.518,1.413-1.745,2.473-3.215,2.74c-0.688,0.134-1.434,0.085-2.134-0.141
			c-1.208-0.396-2.183-1.314-2.637-2.502l-0.685-1.748l-1.604,1.005c-1.06,0.657-2.412,0.835-3.596,0.438
			C59.708,111.355,59.111,110.966,58.612,110.437z M13.418,124.509c-0.624,2.764-3.438,4.542-6.211,3.945
			c-1.352-0.311-2.5-1.121-3.249-2.289c-0.743-1.176-0.986-2.57-0.679-3.922c0.524-2.351,2.655-4.067,5.063-4.067
			c0.38,0,0.767,0.055,1.142,0.134c1.358,0.305,2.512,1.12,3.249,2.289C13.479,121.769,13.723,123.163,13.418,124.509z
			 M25.377,145.394c-0.612,2.729-3.443,4.543-6.205,3.934c-1.358-0.304-2.506-1.107-3.255-2.271
			c-0.743-1.176-0.983-2.569-0.679-3.922c0.536-2.405,2.612-4.062,5.063-4.062c0.387,0,0.767,0.049,1.148,0.135
			C24.236,139.811,26.014,142.593,25.377,145.394z M44.427,157.572c-0.612,2.728-3.474,4.542-6.198,3.934
			c-2.801-0.634-4.57-3.41-3.955-6.211c0.523-2.351,2.67-4.062,5.069-4.062c0.38,0,0.767,0.055,1.142,0.128
			c1.367,0.305,2.515,1.126,3.254,2.29C44.488,154.826,44.738,156.208,44.427,157.572z M177.616,151.361
			c0.377-0.091,0.761-0.134,1.145-0.134c2.405,0,4.543,1.692,5.066,4.055c0.627,2.789-1.145,5.584-3.946,6.199
			c-2.764,0.633-5.596-1.193-6.198-3.934c-0.311-1.357-0.067-2.728,0.676-3.922C175.101,152.47,176.251,151.666,177.616,151.361z
			 M196.663,139.183c0.384-0.085,0.761-0.127,1.15-0.127c2.448,0,4.53,1.674,5.066,4.061c0.311,1.364,0.067,2.74-0.676,3.922
			c-0.749,1.169-1.906,1.973-3.258,2.277c-2.758,0.621-5.59-1.205-6.205-3.945C192.089,142.593,193.868,139.811,196.663,139.183z
			 M214.144,126.165c-0.749,1.168-1.905,1.979-3.251,2.289c-2.801,0.621-5.59-1.182-6.211-3.945
			c-0.305-1.353-0.062-2.74,0.676-3.922c0.743-1.182,1.906-1.973,3.252-2.277c0.377-0.098,0.761-0.134,1.145-0.134
			c2.411,0,4.542,1.692,5.066,4.056C215.137,123.595,214.893,124.989,214.144,126.165z"/>
		<path d="M159.58,95.104c2.563-4.034,3.397-8.829,2.356-13.506c-1.82-8.113-9.164-14.005-17.464-14.005
			c-1.309,0-2.63,0.137-3.915,0.436c-9.633,2.158-15.716,11.755-13.573,21.388c1.846,8.242,9.024,13.993,17.452,13.993
			c1.315,0,2.637-0.137,3.928-0.423C153.028,101.938,157.01,99.138,159.58,95.104z M159.19,86.024l-4.579-2.898l2.868-4.533
			c0.621,1.16,1.133,2.363,1.425,3.672C159.171,83.531,159.226,84.782,159.19,86.024z M155.567,75.798l-3.599,5.663l-7.161-4.546
			l3.562-5.604C151.159,72.084,153.673,73.637,155.567,75.798z M150.306,84.085l-4.549,7.17l-7.173-4.545l4.548-7.152
			L150.306,84.085z M141.233,71.073c1.065-0.237,2.155-0.369,3.245-0.369c0.183,0,0.372,0.049,0.549,0.058l-2.844,4.482
			l-4.464-2.832C138.803,71.84,139.966,71.359,141.233,71.073z M134.9,74.315l5.597,3.547l-4.549,7.164l-5.639-3.578
			C131.119,78.685,132.702,76.203,134.9,74.315z M129.749,84.792l4.537,2.88l-2.911,4.576c-0.578-1.1-1.06-2.262-1.34-3.517
			C129.731,87.404,129.694,86.089,129.749,84.792z M133.256,95.104l3.653-5.763l7.167,4.548l-3.678,5.779
			C137.628,98.864,135.144,97.28,133.256,95.104z M147.675,99.936c-1.065,0.237-2.162,0.368-3.245,0.368
			c-0.231,0-0.457-0.052-0.688-0.063l2.972-4.677l4.658,2.95C150.214,99.125,148.997,99.643,147.675,99.936z M154.148,96.586
			l-5.767-3.66l4.549-7.164l5.729,3.629c-0.39,1.422-0.913,2.774-1.711,4.04C156.182,94.641,155.202,95.664,154.148,96.586z"/>
		<path d="M73.665,103.409c8.431,0,15.601-5.751,17.452-13.993c2.152-9.633-3.934-19.23-13.567-21.388
			c-1.291-0.298-2.609-0.436-3.918-0.436c-8.306,0-15.644,5.892-17.464,14.005c-1.042,4.677-0.207,9.472,2.356,13.506
			c2.563,4.028,6.549,6.841,11.216,7.883C71.031,103.266,72.355,103.409,73.665,103.409z M70.422,99.936
			c-1.322-0.292-2.527-0.81-3.693-1.428l4.658-2.969l2.944,4.628C73.041,100.268,71.731,100.228,70.422,99.936z M77.641,99.601
			l-3.629-5.712l7.164-4.548l3.605,5.675C82.899,97.187,80.417,98.775,77.641,99.601z M72.349,91.255l-4.545-7.17l7.164-4.545
			l4.551,7.17L72.349,91.255z M88.075,88.731c-0.283,1.254-0.779,2.411-1.361,3.504l-2.898-4.563l4.54-2.88
			C88.41,86.089,88.373,87.404,88.075,88.731z M87.785,81.461l-5.635,3.577l-4.546-7.17l5.599-3.553
			C85.398,76.197,86.981,78.685,87.785,81.461z M76.868,71.073c1.267,0.28,2.426,0.767,3.516,1.333l-4.457,2.832l-2.844-4.476
			c0.183-0.009,0.362-0.058,0.548-0.058C74.718,70.704,75.802,70.835,76.868,71.073z M69.734,71.304l3.562,5.599l-7.164,4.545
			l-3.593-5.657C64.43,73.637,66.942,72.084,69.734,71.304z M59.209,82.283c0.301-1.31,0.807-2.524,1.428-3.672l2.868,4.521
			l-4.582,2.911C58.874,84.782,58.929,83.531,59.209,82.283z M61.154,93.432c-0.804-1.266-1.327-2.636-1.714-4.04l5.73-3.629
			l4.545,7.164l-5.767,3.66C62.902,95.664,61.921,94.641,61.154,93.432z"/>
	</g>
</g>
</svg>