<?xml version="1.0" encoding="iso-8859-1"?>
<!-- Uploaded to: SVG Repo, www.svgrepo.com, Generator: SVG Repo Mixer Tools -->
<!DOCTYPE svg PUBLIC "-//W3C//DTD SVG 1.1//EN" "http://www.w3.org/Graphics/SVG/1.1/DTD/svg11.dtd">
<svg height="800px" width="800px" version="1.1" id="Capa_1" xmlns="http://www.w3.org/2000/svg" xmlns:xlink="http://www.w3.org/1999/xlink" 
	 viewBox="0 0 60.925 60.925" xml:space="preserve">
<g>
	<path style="fill:#1a1a1a;" d="M50.463,23.257c6.51-5.364,6.657-15.984-1.255-21.098c-8.482-5.483-21.335,0.056-21.5,10.134
		C23.701,3.374,10.732,1.471,4.305,9.741c-4.377,5.632-2.647,17.458,3.888,20.294c-7.599,1.642-9.103,13.923-4.48,19.599
		c4.308,5.29,12.904,4.398,16.034-0.955c-0.49,7.156,6.214,13.459,14.014,12.047c3.873-0.701,8.59-3.135,10.166-6.961
		c1.229-2.984,0.553-5.949-0.863-8.613c2.019,1.691,4.373,2.974,7.079,2.75c3.967-0.329,6.986-3.526,8.539-6.982
		C61.743,34.101,58.58,24.01,50.463,23.257z M47.82,3.093c8.012,4.646,7.83,15.96,0.146,20.269
		c4.193-5.604,4.206-14.453-2.822-18.087c-6.547-3.386-14.083,0.786-16.386,6.986C29.948,3.779,40.043-1.417,47.82,3.093z
		 M21.855,23.338c-0.639,1.101-1.123,2.326-1.415,3.591c-0.44-0.126-0.912-0.063-1.359,0.103c-0.565-0.623-0.735-1.786-0.438-2.518
		c0.208-0.511,0.528-0.851,0.91-1.063c0.039,0.019,0.074,0.044,0.114,0.062c0.26,0.113,0.527-0.046,0.552-0.287
		C20.739,23.13,21.308,23.181,21.855,23.338z M22.542,19.812c0.476-0.25,1.069-0.184,1.542,0.042c0.198,0.095,0.34,0.244,0.474,0.4
		c-0.787,0.579-1.495,1.307-2.097,2.147c-0.002-0.002-0.003-0.004-0.005-0.006c-0.182-0.136-0.373-0.237-0.567-0.323
		C21.601,21.255,21.731,20.239,22.542,19.812z M19.643,28.16c0.199,0,0.396-0.032,0.59-0.1c-0.198,1.434-0.157,2.882,0.19,4.215
		c-0.14,0.033-0.274,0.1-0.409,0.166c-0.242-0.023-0.488-0.089-0.558-0.124c-0.257-0.129-0.496-0.289-0.699-0.493
		c-0.483-0.483-0.786-1.185-0.699-1.873C18.19,28.906,18.854,28.469,19.643,28.16z M19.71,34.435
		c0.267-0.583,0.66-0.758,1.111-0.985c0.394,0.932,0.952,1.782,1.705,2.492c-0.195,0.163-0.332,0.367-0.44,0.588
		c-0.762,0.313-1.721,0.254-2.257-0.381C19.422,35.666,19.459,34.983,19.71,34.435z M22.544,26.633
		c1.176-3.922,4.262-5.846,8.091-6.053c0.009,0.002,0.014,0.008,0.024,0.01c9.566,2.051,6.116,16.043-2.899,15.418
		C22.793,35.664,21.298,30.789,22.544,26.633z M31.805,16.517c0.799,0.214,1.38,0.834,1.566,1.638
		c0.092,0.399,0.094,0.82,0.005,1.22c-0.767-0.285-1.598-0.452-2.491-0.452c-0.204,0-0.369,0.078-0.502,0.189
		c-0.269-0.073-0.534-0.124-0.797-0.164C29.237,17.556,30.165,16.077,31.805,16.517z M34.525,19.923
		c0.057-0.182,0.089-0.379,0.111-0.579c1.176-0.705,2.987-0.6,3.643,0.732c0.338,0.687,0.26,1.535-0.096,2.201
		c-0.185,0.347-0.455,0.563-0.733,0.765C36.749,21.762,35.765,20.658,34.525,19.923z M29.785,40.06
		c-0.663,0.132-1.276-0.243-1.643-0.779c-0.287-0.419-0.349-0.795-0.322-1.203c1.242,0.056,2.452-0.162,3.591-0.589
		C31.517,38.564,30.894,39.839,29.785,40.06z M25.862,38.942c0.003,0.009,0.003,0.017,0.006,0.025
		c-0.546,0.512-1.288,0.749-1.962,0.269c-0.438-0.312-0.691-0.866-0.735-1.391c-0.038-0.463,0.139-0.792,0.318-1.152
		c0.816,0.54,1.783,0.958,2.934,1.201c-0.027,0.124-0.017,0.251-0.021,0.377c-0.047,0.089-0.104,0.174-0.161,0.259
		C26.017,38.496,25.776,38.653,25.862,38.942z M23.248,40.408c0.064,0.043,0.126,0.089,0.193,0.123
		c0.879,0.45,1.857,0.303,2.629-0.179c0.009,1.138-0.351,2.183-0.667,3.374c-0.118,0.445,0.504,0.887,0.828,0.482
		c0.977-1.219,1.027-2.883,0.652-4.37c0.624,0.96,1.733,1.688,2.784,1.617c-0.021,1.07,0.183,2.189,0.854,3.024
		c0.257,0.319,0.654-0.044,0.608-0.354c-0.141-0.959-0.49-1.884-0.726-2.833c0.639-0.228,1.14-0.68,1.479-1.239
		c0.694,1.414,1.985,2.483,3.549,2.823c0.477,0.104,0.647-0.554,0.199-0.722c-1.482-0.556-2.639-1.594-3.372-2.982
		c0.039-0.151,0.07-0.304,0.089-0.459c1.039,0.938,2.691,1.347,3.938,0.833c0.369,0.647,0.863,1.25,1.445,1.802
		c2.695,5.154,0.331,12.245-6.172,12.869c-2.973,0.285-6.425-0.933-7.918-3.685C22.219,47.915,22.327,43.383,23.248,40.408z
		 M36.091,38.143c-0.672,0.471-1.555,0.373-2.237-0.019c-0.559-0.321-0.85-0.757-1.055-1.268c1.219-0.68,2.32-1.595,3.223-2.683
		c0.045,0.048,0.111,0.076,0.162,0.118C37.166,35.314,37.378,37.241,36.091,38.143z M36.782,33.16
		c0.751-1.134,1.307-2.392,1.597-3.702c0.212,0.04,0.446,0.048,0.688,0.037c1.005,0.677,1.601,2.101,0.883,3.184
		c-0.374,0.564-1.056,0.868-1.716,0.909C37.645,33.625,37.245,33.354,36.782,33.16z M38.564,28.189
		c0.096-1.274-0.084-2.552-0.5-3.744c0.884-0.191,1.831-0.24,2.641,0.181c0.808,0.42,1.515,1.395,1.041,2.314
		C41.135,28.125,39.705,27.96,38.564,28.189z M41.33,23.556c-0.761-0.365-1.568-0.398-2.357-0.255
		c0.056-0.082,0.105-0.165,0.156-0.247c0.204,0.034,0.428-0.026,0.58-0.237c0.901-1.251,2.188-1.767,3.643-2.087
		c0.653-0.144,0.495-1.147-0.156-1.15c-1.327-0.005-2.557,0.623-3.508,1.532c0.009-0.655-0.148-1.308-0.513-1.865
		c-0.32-0.489-0.757-0.836-1.241-1.073c0.835-0.935,1.325-2.063,1.439-3.324c0.056-0.621-0.961-0.637-0.981,0
		c-0.035,1.128-0.444,2.158-1.191,3.005c-0.013,0.015-0.017,0.032-0.028,0.048c-0.861-0.186-1.791-0.053-2.556,0.399
		c-0.002-0.013-0.005-0.025-0.007-0.039c0.148-0.019,0.285-0.109,0.338-0.299c0.467-1.646,0.405-3.34-0.2-4.941
		c-0.267-0.707-1.264-0.303-0.964,0.406c0.487,1.151,0.616,2.367,0.448,3.582c-0.539-1.015-1.542-1.68-2.713-1.773
		c-0.968-0.077-1.916,0.307-2.503,1.047c0.695-7.258,8.9-13.78,15.982-9.464c7.696,4.69,4.274,14.871-1.925,18.837
		C42.841,24.754,42.16,23.953,41.33,23.556z M27.724,17.549c0.422,0.387,0.45,0.885,0.689,1.327
		c-1.005,0.027-1.947,0.292-2.812,0.735c-0.151-0.207-0.347-0.387-0.554-0.543c-0.073-0.8,0.306-1.693,1.059-1.954
		C26.665,16.921,27.305,17.166,27.724,17.549z M25.711,15.995c-0.965,0.341-1.526,1.208-1.644,2.137
		c-0.554-0.289-1.098-0.383-1.557-0.851c-0.482-0.492-0.735-1.077-0.708-1.767c0.015-0.389-0.547-0.367-0.591,0
		c-0.098,0.818,0.144,1.684,0.663,2.327c0.203,0.251,0.464,0.493,0.757,0.683c-0.271,0.056-0.536,0.139-0.777,0.282
		c-0.618,0.368-1,0.988-1.147,1.661c-0.336-0.373-0.792-0.646-1.196-0.935c-0.478-0.342-0.955-0.684-1.433-1.027
		c-0.295-0.211-0.669,0.269-0.39,0.505c0.449,0.38,0.897,0.759,1.346,1.139c0.416,0.352,0.822,0.776,1.324,1.001
		c0.105,0.047,0.201,0.046,0.286,0.021c0.006,0.224,0.031,0.446,0.089,0.66c-0.483,0.002-0.96,0.131-1.404,0.34
		c-0.394-0.234-0.842-0.398-1.244-0.501c-0.923-0.238-1.67-0.101-2.581,0.093c-0.137,0.029-0.109,0.266,0.034,0.249
		c0.705-0.085,1.553,0.119,2.215,0.375c0.247,0.095,0.467,0.227,0.683,0.367c-0.592,0.524-1.025,1.228-1.145,2.021
		c-0.15,0.991,0.133,2.075,0.886,2.76c-0.251,0.191-0.475,0.405-0.65,0.628c-0.148,0.189-0.264,0.393-0.366,0.604
		c-7.368-1.291-13.681-8.824-7.824-15.898c5.177-6.254,14.08-3.517,17.312,3.01C26.334,15.863,26.018,15.887,25.711,15.995z
		 M7.141,8.799c6.653-5.753,15.036-2.892,18.965,3.71c-4.48-5.391-12.927-6.758-18.06-0.641c-5.009,5.97-1.779,15.578,5.121,17.441
		c-0.248,0.087-0.492,0.184-0.735,0.287C2.426,29.558,0.486,14.553,7.141,8.799z M13.493,51.51c-4.09,1.076-7.864-0.702-9.839-4.427
		c-1.315-2.482-1.627-5.717-1.034-8.442c0.954-4.377,3.846-6.753,7.871-8.012C5.35,33.944,2.343,40.866,6.522,46.307
		c3.332,4.338,8.938,3.428,12.611,0.262C18.037,48.983,16.435,50.736,13.493,51.51z M6.337,42.443
		c-1.536-6.657,4.308-11.855,10.318-12.723c0.086-0.012,0.151-0.046,0.207-0.089c-0.107,0.583-0.057,1.191,0.18,1.767
		c0.152,0.368,0.38,0.714,0.65,1.022c-0.439,0.16-0.872,0.317-1.369,0.357c-0.825,0.067-1.594-0.109-2.319-0.505
		c-0.371-0.203-0.682,0.336-0.33,0.564c1.263,0.819,3.419,1.201,4.718,0.2c0.17,0.111,0.347,0.213,0.536,0.287
		c-0.123,0.153-0.229,0.309-0.313,0.458c-0.341,0.612-0.478,1.333-0.362,2.01c-0.889,0.183-1.751,0.728-2.548,1.125
		c-0.324,0.162-0.098,0.703,0.248,0.588c0.826-0.275,1.792-0.496,2.544-0.97c0.064,0.125,0.139,0.247,0.226,0.363
		c0.257,0.343,0.597,0.594,0.974,0.764c-0.948,0.767-1.555,1.984-1.696,3.171c-0.06,0.504,0.724,0.572,0.86,0.116
		c0.379-1.272,1.111-2.177,2.017-3.038c0.336,0.002,0.671-0.045,0.982-0.155c0.029,0.513,0.186,1.039,0.424,1.505
		c-0.056,0.035-0.104,0.088-0.125,0.166C20.334,46.119,8.619,52.329,6.337,42.443z M42.953,51.071
		c-0.477,4.213-4.409,6.82-8.228,7.906c-8.28,2.354-14.126-4.111-13.631-11.593c0.175,1.624,0.628,3.161,1.41,4.391
		c2.021,3.173,6.052,4.582,9.677,4.036c6.417-0.966,9.587-7.605,7.536-12.976c0.195,0.117,0.4,0.22,0.602,0.328
		C41.936,45.523,43.285,48.146,42.953,51.071z M40.318,41.157c-0.116-0.139-0.231-0.279-0.347-0.415
		c-0.139-0.162-0.327-0.189-0.504-0.144c-0.757-0.546-1.421-1.152-1.919-1.796c-0.043-0.055-0.094-0.089-0.143-0.129
		c0.594-0.765,0.819-1.804,0.67-2.768c1.075,0.66,1.757,1.665,2.416,2.821c0.23,0.405,0.788,0.117,0.713-0.301
		c-0.298-1.672-1.849-2.94-3.421-3.478c-0.014-0.028-0.022-0.059-0.036-0.087c0.25,0.02,0.494,0.022,0.712-0.002
		c0.753-0.083,1.475-0.405,2.028-0.914c0.528,0.23,1.048,0.446,1.615,0.576c0.351,0.08,0.568-0.396,0.248-0.588
		c-0.428-0.257-0.879-0.443-1.339-0.618c0.022-0.036,0.055-0.063,0.076-0.1c0.375-0.666,0.447-1.399,0.297-2.085
		c1.484,0.23,3.085-0.364,3.835-1.739c0.255-0.467-0.386-0.801-0.692-0.405c-0.838,1.085-2.079,1.653-3.392,1.436
		c-0.201-0.427-0.482-0.818-0.836-1.131c0.497-0.137,0.963-0.322,1.305-0.51c0.604-0.334,1.093-0.841,1.356-1.454
		c0.103-0.002,0.211-0.024,0.321-0.075c0.062-0.029,0.121-0.063,0.182-0.093c0.051-0.003,0.104-0.014,0.157-0.041
		c7.018-3.599,12.996,3.556,10.301,10.388c-1.146,2.907-3.76,5.487-7.055,5.595C44.814,43.167,42.336,42.379,40.318,41.157z
		 M57.819,39.218c-1.322,3.771-4.478,6.921-8.529,6.963c-1.935,0.02-3.582-0.685-5.124-1.644c1.268,0.262,2.522,0.348,3.636,0.187
		c3.922-0.566,6.99-3.953,8.041-7.646c1.091-3.836,0.219-8.461-3.154-10.896c-1.251-0.903-2.726-1.436-4.206-1.545
		c0.247-0.138,0.467-0.302,0.701-0.453C56.138,26.042,60.355,31.982,57.819,39.218z"/>
</g>
</svg>